<svg xmlns="http://www.w3.org/2000/svg" xmlns:v="https://svgstorm.com"
viewBox = "0 0 500 500"
width="500"
height="500">
<g fill="None" fill-opacity="0.0" stroke="#000000" stroke-opacity="0.00" stroke-width="0.3"><path d="
M 0.00 500.00 
L 500.00 500.00
L 500.00 0.00
L 0.00 0.00
L 0.00 500.00
M 78.00 82.00 
C 78.30 82.25 79.00 82.00 79.00 82.00
C 82.35 82.13 84.36 84.05 87.00 85.00
C 89.76 85.59 91.39 85.87 94.00 87.00
C 98.24 88.15 102.58 88.07 106.00 91.00
C 106.48 91.09 107.00 91.00 107.00 91.00
C 110.82 90.71 122.77 94.09 125.00 97.00
C 125.48 97.09 126.00 97.00 126.00 97.00
C 129.85 97.09 139.69 98.99 142.00 102.00
C 142.50 102.02 143.00 102.00 143.00 102.00
C 147.08 102.16 158.57 104.83 161.00 108.00
C 161.48 108.09 162.00 108.00 162.00 108.00
C 169.11 107.46 176.08 112.84 183.07 113.93 C 190.07 115.01 197.63 118.93 204.00 121.00
C 206.76 121.59 208.39 121.87 211.00 123.00
C 221.96 126.51 234.12 129.86 242.90 137.10 C 251.68 144.34 258.45 152.03 264.30 161.70 C 270.15 171.36 278.53 178.10 283.75 188.25 C 288.98 198.39 299.79 208.82 310.23 200.23 C 320.67 191.64 326.79 188.86 337.08 181.08 C 347.36 173.29 360.98 171.30 373.00 175.00
C 375.81 175.52 377.37 175.97 380.00 177.00
C 387.92 180.11 396.96 183.51 406.00 182.00 C 415.04 180.49 423.81 186.42 426.00 194.00
C 423.47 194.00 421.73 196.60 419.00 196.00
C 413.80 198.69 408.37 200.07 403.00 202.00
C 390.00 208.72 384.80 222.61 375.00 232.00
C 374.83 232.43 375.00 233.00 375.00 233.00
C 366.79 253.90 352.85 277.58 339.75 295.75 C 326.66 313.92 304.42 332.96 283.00 338.00
C 282.53 338.11 282.00 338.00 282.00 338.00
C 276.42 342.48 268.74 343.96 262.00 346.00
C 257.81 347.27 254.39 348.26 250.00 349.00
C 247.85 349.58 247.01 351.23 244.00 351.00
C 243.50 350.96 243.00 351.00 243.00 351.00
C 240.63 354.10 227.12 356.84 223.00 357.00
C 222.50 357.02 222.00 357.00 222.00 357.00
C 214.37 363.55 199.43 367.04 194.75 377.75 C 190.08 388.46 178.87 395.96 173.25 405.25 C 167.63 414.54 150.77 426.49 145.70 413.30 C 140.62 400.12 132.54 395.25 123.92 386.08 C 115.30 376.91 99.89 376.97 93.00 368.00
C 92.53 367.89 92.00 368.00 92.00 368.00
C 80.99 365.58 84.28 352.21 93.23 349.23 C 102.18 346.25 110.46 339.20 120.00 339.00
C 120.50 338.99 121.00 339.00 121.00 339.00
C 124.89 333.92 139.93 333.53 146.00 332.00
C 148.85 330.91 150.96 330.51 154.00 330.00
C 164.71 326.88 176.17 321.73 186.23 316.23 C 196.29 310.73 197.88 295.09 207.00 291.00
C 207.16 290.56 207.00 290.00 207.00 290.00
C 208.27 284.23 212.65 281.83 212.00 275.00
C 211.95 274.50 212.00 274.00 212.00 274.00
C 208.04 269.39 207.55 260.88 206.00 255.00
C 205.54 253.26 205.29 251.87 205.00 250.00
C 204.37 247.66 203.07 246.00 203.00 243.00
C 202.99 242.50 203.00 242.00 203.00 242.00
C 200.08 239.76 199.09 230.70 199.00 227.00
C 198.99 226.50 199.00 226.00 199.00 226.00
C 196.49 222.91 194.16 213.28 194.00 209.00
C 193.98 208.50 194.00 208.00 194.00 208.00
C 189.90 203.22 187.10 196.60 181.30 192.70 C 175.51 188.80 169.54 185.74 165.00 181.00
C 164.57 180.83 164.00 181.00 164.00 181.00
C 152.28 178.43 139.74 166.70 129.30 160.70 C 118.87 154.70 107.82 143.55 99.75 134.25 C 91.68 124.94 80.88 112.28 78.00 100.00
C 77.89 99.53 78.00 99.00 78.00 99.00
C 72.88 95.07 74.17 87.00 74.00 81.00
C 75.28 81.28 77.50 80.24 78.00 82.00 Z"/>
</g>
<g fill="None" fill-opacity="0.0" stroke="#E1F0E6" stroke-opacity="0.22" stroke-width="0.3"><path d="
M 78.00 99.00 
C 76.71 93.49 73.48 88.31 75.00 82.00
C 76.00 82.00 77.00 82.00 78.00 82.00
C 77.50 80.24 75.28 81.28 74.00 81.00
C 74.17 87.00 72.88 95.07 78.00 99.00 Z"/>
</g>
<g fill="None" fill-opacity="0.0" stroke="#74A285" stroke-opacity="1.00" stroke-width="0.3"><path d="
M 78.00 99.00 
C 78.00 99.00 77.89 99.53 78.00 100.00
C 86.01 109.98 90.40 123.53 100.25 132.75 C 110.10 141.97 118.76 151.77 129.25 159.75 C 139.73 167.74 154.94 171.55 164.00 181.00
C 164.00 181.00 164.57 180.83 165.00 181.00
C 175.92 185.29 191.95 195.48 194.00 208.00
C 194.00 208.00 193.98 208.50 194.00 209.00
C 197.02 212.72 198.88 221.01 199.00 226.00
C 199.00 226.00 198.99 226.50 199.00 227.00
C 201.24 231.10 202.20 237.13 203.00 242.00
C 203.00 242.00 202.99 242.50 203.00 243.00
C 204.13 245.06 204.60 247.42 205.00 250.00
C 205.29 251.87 205.54 253.26 206.00 255.00
C 208.08 260.53 211.76 267.63 212.00 274.00
C 212.00 274.00 211.95 274.50 212.00 275.00
C 215.67 279.96 210.54 286.61 207.00 290.00
C 207.00 290.00 207.16 290.56 207.00 291.00
C 199.04 313.07 175.52 326.36 154.00 330.00
C 150.96 330.51 148.85 330.91 146.00 332.00
C 138.41 334.91 129.36 337.62 121.00 339.00
C 121.00 339.00 120.50 338.99 120.00 339.00
C 111.09 343.66 105.57 343.98 95.92 348.92 C 86.28 353.87 84.56 360.22 92.00 368.00
C 92.00 368.00 92.53 367.89 93.00 368.00
C 106.30 371.12 120.04 383.00 130.75 390.25 C 141.46 397.50 146.82 424.93 160.23 416.23 C 173.63 407.53 179.27 396.53 188.75 384.75 C 198.23 372.97 205.52 359.69 222.00 357.00
C 222.00 357.00 222.50 357.02 223.00 357.00
C 226.99 353.76 237.62 351.12 243.00 351.00
C 243.00 351.00 243.50 350.96 244.00 351.00
C 245.73 349.60 247.68 349.39 250.00 349.00
C 254.39 348.26 257.81 347.27 262.00 346.00
C 268.08 343.34 275.11 339.13 282.00 338.00
C 282.00 338.00 282.53 338.11 283.00 338.00
C 291.95 330.82 304.41 327.01 313.75 319.75 C 323.08 312.49 330.97 304.45 338.30 295.30 C 345.64 286.16 350.86 274.50 357.25 265.25 C 363.65 256.01 365.50 239.19 375.00 233.00
C 375.00 233.00 374.83 232.43 375.00 232.00
C 379.61 220.25 391.00 206.32 403.00 202.00
C 408.37 200.07 413.80 198.69 419.00 196.00
C 420.84 195.05 422.70 193.47 425.00 193.00
C 416.44 174.91 391.39 190.21 380.00 177.00
C 377.37 175.97 375.81 175.52 373.00 175.00
C 358.32 172.27 341.83 178.48 331.25 186.25 C 320.67 194.02 308.34 209.01 295.93 204.07 C 283.52 199.13 280.98 182.25 271.70 173.30 C 262.42 164.36 258.17 151.40 247.75 142.25 C 237.33 133.10 223.21 128.27 211.00 123.00
C 208.39 121.87 206.76 121.59 204.00 121.00
C 197.22 119.55 189.32 117.86 182.98 115.02 C 176.63 112.19 167.24 112.25 162.00 108.00
C 162.00 108.00 161.48 108.09 161.00 108.00
C 156.72 107.20 145.62 105.42 143.00 102.00
C 143.00 102.00 142.50 102.02 142.00 102.00
C 137.24 101.82 129.88 99.12 126.00 97.00
C 126.00 97.00 125.48 97.09 125.00 97.00
C 119.89 96.05 110.90 94.17 107.00 91.00
C 107.00 91.00 106.48 91.09 106.00 91.00
C 101.77 90.21 97.67 88.58 94.00 87.00
C 91.39 85.87 89.76 85.59 87.00 85.00
C 83.93 84.34 81.36 84.03 79.00 82.00
C 79.00 82.00 78.30 82.25 78.00 82.00
C 77.00 82.00 76.00 82.00 75.00 82.00
C 73.48 88.31 76.71 93.49 78.00 99.00 Z"/>
</g>
<g fill="None" fill-opacity="0.0" stroke="#DFF0E1" stroke-opacity="0.20" stroke-width="0.3"><path d="
M 87.00 85.00 
C 84.36 84.05 82.35 82.13 79.00 82.00
C 81.36 84.03 83.93 84.34 87.00 85.00 Z"/>
</g>
<g fill="None" fill-opacity="0.0" stroke="#E0F1E4" stroke-opacity="0.18" stroke-width="0.3"><path d="
M 106.00 91.00 
C 102.58 88.07 98.24 88.15 94.00 87.00
C 97.67 88.58 101.77 90.21 106.00 91.00 Z"/>
</g>
<g fill="None" fill-opacity="0.0" stroke="#DEEFE3" stroke-opacity="0.22" stroke-width="0.3"><path d="
M 125.00 97.00 
C 122.77 94.09 110.82 90.71 107.00 91.00
C 110.90 94.17 119.89 96.05 125.00 97.00 Z"/>
</g>
<g fill="None" fill-opacity="0.0" stroke="#DFEFE4" stroke-opacity="0.19" stroke-width="0.3"><path d="
M 142.00 102.00 
C 139.69 98.99 129.85 97.09 126.00 97.00
C 129.88 99.12 137.24 101.82 142.00 102.00 Z"/>
</g>
<g fill="None" fill-opacity="0.0" stroke="#DCECE0" stroke-opacity="0.23" stroke-width="0.3"><path d="
M 164.00 181.00 
C 154.94 171.55 139.73 167.74 129.25 159.75 C 118.76 151.77 110.10 141.97 100.25 132.75 C 90.40 123.53 86.01 109.98 78.00 100.00
C 80.88 112.28 91.68 124.94 99.75 134.25 C 107.82 143.55 118.87 154.70 129.30 160.70 C 139.74 166.70 152.28 178.43 164.00 181.00 Z"/>
</g>
<g fill="None" fill-opacity="0.0" stroke="#E0F1E5" stroke-opacity="0.21" stroke-width="0.3"><path d="
M 161.00 108.00 
C 158.57 104.83 147.08 102.16 143.00 102.00
C 145.62 105.42 156.72 107.20 161.00 108.00 Z"/>
</g>
<g fill="None" fill-opacity="0.0" stroke="#E0F0E5" stroke-opacity="0.20" stroke-width="0.3"><path d="
M 204.00 121.00 
C 197.63 118.93 190.07 115.01 183.07 113.93 C 176.08 112.84 169.11 107.46 162.00 108.00
C 167.24 112.25 176.63 112.19 182.98 115.02 C 189.32 117.86 197.22 119.55 204.00 121.00 Z"/>
</g>
<g fill="None" fill-opacity="0.0" stroke="#E0F0E6" stroke-opacity="0.19" stroke-width="0.3"><path d="
M 373.00 175.00 
C 360.98 171.30 347.36 173.29 337.08 181.08 C 326.79 188.86 320.67 191.64 310.23 200.23 C 299.79 208.82 288.98 198.39 283.75 188.25 C 278.53 178.10 270.15 171.36 264.30 161.70 C 258.45 152.03 251.68 144.34 242.90 137.10 C 234.12 129.86 221.96 126.51 211.00 123.00
C 223.21 128.27 237.33 133.10 247.75 142.25 C 258.17 151.40 262.42 164.36 271.70 173.30 C 280.98 182.25 283.52 199.13 295.93 204.07 C 308.34 209.01 320.67 194.02 331.25 186.25 C 341.83 178.48 358.32 172.27 373.00 175.00 Z"/>
</g>
<g fill="None" fill-opacity="0.0" stroke="#DBEEE2" stroke-opacity="0.20" stroke-width="0.3"><path d="
M 419.00 196.00 
C 421.73 196.60 423.47 194.00 426.00 194.00
C 423.81 186.42 415.04 180.49 406.00 182.00 C 396.96 183.51 387.92 180.11 380.00 177.00
C 391.39 190.21 416.44 174.91 425.00 193.00
C 422.70 193.47 420.84 195.05 419.00 196.00 Z"/>
</g>
<g fill="None" fill-opacity="0.0" stroke="#DEEFE4" stroke-opacity="0.20" stroke-width="0.3"><path d="
M 194.00 208.00 
C 191.95 195.48 175.92 185.29 165.00 181.00
C 169.54 185.74 175.51 188.80 181.30 192.70 C 187.10 196.60 189.90 203.22 194.00 208.00 Z"/>
</g>
<g fill="None" fill-opacity="0.0" stroke="#DBECE0" stroke-opacity="0.22" stroke-width="0.3"><path d="
M 375.00 232.00 
C 384.80 222.61 390.00 208.72 403.00 202.00
C 391.00 206.32 379.61 220.25 375.00 232.00 Z"/>
</g>
<g fill="None" fill-opacity="0.0" stroke="#E0F1E4" stroke-opacity="0.20" stroke-width="0.3"><path d="
M 199.00 226.00 
C 198.88 221.01 197.02 212.72 194.00 209.00
C 194.16 213.28 196.49 222.91 199.00 226.00 Z"/>
</g>
<g fill="None" fill-opacity="0.0" stroke="#E2F3E6" stroke-opacity="0.23" stroke-width="0.3"><path d="
M 203.00 242.00 
C 202.20 237.13 201.24 231.10 199.00 227.00
C 199.09 230.70 200.08 239.76 203.00 242.00 Z"/>
</g>
<g fill="None" fill-opacity="0.0" stroke="#E0EEE4" stroke-opacity="0.21" stroke-width="0.3"><path d="
M 283.00 338.00 
C 304.42 332.96 326.66 313.92 339.75 295.75 C 352.85 277.58 366.79 253.90 375.00 233.00
C 365.50 239.19 363.65 256.01 357.25 265.25 C 350.86 274.50 345.64 286.16 338.30 295.30 C 330.97 304.45 323.08 312.49 313.75 319.75 C 304.41 327.01 291.95 330.82 283.00 338.00 Z"/>
</g>
<g fill="None" fill-opacity="0.0" stroke="#E2EFE5" stroke-opacity="0.19" stroke-width="0.3"><path d="
M 205.00 250.00 
C 204.60 247.42 204.13 245.06 203.00 243.00
C 203.07 246.00 204.37 247.66 205.00 250.00 Z"/>
</g>
<g fill="None" fill-opacity="0.0" stroke="#E1EEE5" stroke-opacity="0.23" stroke-width="0.3"><path d="
M 212.00 274.00 
C 211.76 267.63 208.08 260.53 206.00 255.00
C 207.55 260.88 208.04 269.39 212.00 274.00 Z"/>
</g>
<g fill="None" fill-opacity="0.0" stroke="#E4F4E9" stroke-opacity="0.17" stroke-width="0.3"><path d="
M 207.00 290.00 
C 210.54 286.61 215.67 279.96 212.00 275.00
C 212.65 281.83 208.27 284.23 207.00 290.00 Z"/>
</g>
<g fill="None" fill-opacity="0.0" stroke="#E5F2E8" stroke-opacity="0.18" stroke-width="0.3"><path d="
M 154.00 330.00 
C 175.52 326.36 199.04 313.07 207.00 291.00
C 197.88 295.09 196.29 310.73 186.23 316.23 C 176.17 321.73 164.71 326.88 154.00 330.00 Z"/>
</g>
<g fill="None" fill-opacity="0.0" stroke="#E4F2E8" stroke-opacity="0.19" stroke-width="0.3"><path d="
M 121.00 339.00 
C 129.36 337.62 138.41 334.91 146.00 332.00
C 139.93 333.53 124.89 333.92 121.00 339.00 Z"/>
</g>
<g fill="None" fill-opacity="0.0" stroke="#DCECE1" stroke-opacity="0.24" stroke-width="0.3"><path d="
M 262.00 346.00 
C 268.74 343.96 276.42 342.48 282.00 338.00
C 275.11 339.13 268.08 343.34 262.00 346.00 Z"/>
</g>
<g fill="None" fill-opacity="0.0" stroke="#E0EFE4" stroke-opacity="0.21" stroke-width="0.3"><path d="
M 92.00 368.00 
C 84.56 360.22 86.28 353.87 95.92 348.92 C 105.57 343.98 111.09 343.66 120.00 339.00
C 110.46 339.20 102.18 346.25 93.23 349.23 C 84.28 352.21 80.99 365.58 92.00 368.00 Z"/>
</g>
<g fill="None" fill-opacity="0.0" stroke="#E1F1E5" stroke-opacity="0.26" stroke-width="0.3"><path d="
M 244.00 351.00 
C 247.01 351.23 247.85 349.58 250.00 349.00
C 247.68 349.39 245.73 349.60 244.00 351.00 Z"/>
</g>
<g fill="None" fill-opacity="0.0" stroke="#DFEFE3" stroke-opacity="0.22" stroke-width="0.3"><path d="
M 223.00 357.00 
C 227.12 356.84 240.63 354.10 243.00 351.00
C 237.62 351.12 226.99 353.76 223.00 357.00 Z"/>
</g>
<g fill="None" fill-opacity="0.0" stroke="#DFEFE4" stroke-opacity="0.20" stroke-width="0.3"><path d="
M 93.00 368.00 
C 99.89 376.97 115.30 376.91 123.92 386.08 C 132.54 395.25 140.62 400.12 145.70 413.30 C 150.77 426.49 167.63 414.54 173.25 405.25 C 178.87 395.96 190.08 388.46 194.75 377.75 C 199.43 367.04 214.37 363.55 222.00 357.00
C 205.52 359.69 198.23 372.97 188.75 384.75 C 179.27 396.53 173.63 407.53 160.23 416.23 C 146.82 424.93 141.46 397.50 130.75 390.25 C 120.04 383.00 106.30 371.12 93.00 368.00 Z"/>
</g>
<g fill="#000000" fill-opacity="0.00" stroke="None">
<path d="
M 0.00 500.00 
L 500.00 500.00
L 500.00 0.00
L 0.00 0.00
L 0.00 500.00
M 78.00 82.00 
C 78.30 82.25 79.00 82.00 79.00 82.00
C 82.35 82.13 84.36 84.05 87.00 85.00
C 89.76 85.59 91.39 85.87 94.00 87.00
C 98.24 88.15 102.58 88.07 106.00 91.00
C 106.48 91.09 107.00 91.00 107.00 91.00
C 110.82 90.71 122.77 94.09 125.00 97.00
C 125.48 97.09 126.00 97.00 126.00 97.00
C 129.85 97.09 139.69 98.99 142.00 102.00
C 142.50 102.02 143.00 102.00 143.00 102.00
C 147.08 102.16 158.57 104.83 161.00 108.00
C 161.48 108.09 162.00 108.00 162.00 108.00
C 169.11 107.46 176.08 112.84 183.07 113.93 C 190.07 115.01 197.63 118.93 204.00 121.00
C 206.76 121.59 208.39 121.87 211.00 123.00
C 221.96 126.51 234.12 129.86 242.90 137.10 C 251.68 144.34 258.45 152.03 264.30 161.70 C 270.15 171.36 278.53 178.10 283.75 188.25 C 288.98 198.39 299.79 208.82 310.23 200.23 C 320.67 191.64 326.79 188.86 337.08 181.08 C 347.36 173.29 360.98 171.30 373.00 175.00
C 375.81 175.52 377.37 175.97 380.00 177.00
C 387.92 180.11 396.96 183.51 406.00 182.00 C 415.04 180.49 423.81 186.42 426.00 194.00
C 423.47 194.00 421.73 196.60 419.00 196.00
C 413.80 198.69 408.37 200.07 403.00 202.00
C 390.00 208.72 384.80 222.61 375.00 232.00
C 374.83 232.43 375.00 233.00 375.00 233.00
C 366.79 253.90 352.85 277.58 339.75 295.75 C 326.66 313.92 304.42 332.96 283.00 338.00
C 282.53 338.11 282.00 338.00 282.00 338.00
C 276.42 342.48 268.74 343.96 262.00 346.00
C 257.81 347.27 254.39 348.26 250.00 349.00
C 247.85 349.58 247.01 351.23 244.00 351.00
C 243.50 350.96 243.00 351.00 243.00 351.00
C 240.63 354.10 227.12 356.84 223.00 357.00
C 222.50 357.02 222.00 357.00 222.00 357.00
C 214.37 363.55 199.43 367.04 194.75 377.75 C 190.08 388.46 178.87 395.96 173.25 405.25 C 167.63 414.54 150.77 426.49 145.70 413.30 C 140.62 400.12 132.54 395.25 123.92 386.08 C 115.30 376.91 99.89 376.97 93.00 368.00
C 92.53 367.89 92.00 368.00 92.00 368.00
C 80.99 365.58 84.28 352.21 93.23 349.23 C 102.18 346.25 110.46 339.20 120.00 339.00
C 120.50 338.99 121.00 339.00 121.00 339.00
C 124.89 333.92 139.93 333.53 146.00 332.00
C 148.85 330.91 150.96 330.51 154.00 330.00
C 164.71 326.88 176.17 321.73 186.23 316.23 C 196.29 310.73 197.88 295.09 207.00 291.00
C 207.16 290.56 207.00 290.00 207.00 290.00
C 208.27 284.23 212.65 281.83 212.00 275.00
C 211.95 274.50 212.00 274.00 212.00 274.00
C 208.04 269.39 207.55 260.88 206.00 255.00
C 205.54 253.26 205.29 251.87 205.00 250.00
C 204.37 247.66 203.07 246.00 203.00 243.00
C 202.99 242.50 203.00 242.00 203.00 242.00
C 200.08 239.76 199.09 230.70 199.00 227.00
C 198.99 226.50 199.00 226.00 199.00 226.00
C 196.49 222.91 194.16 213.28 194.00 209.00
C 193.98 208.50 194.00 208.00 194.00 208.00
C 189.90 203.22 187.10 196.60 181.30 192.70 C 175.51 188.80 169.54 185.74 165.00 181.00
C 164.57 180.83 164.00 181.00 164.00 181.00
C 152.28 178.43 139.74 166.70 129.30 160.70 C 118.87 154.70 107.82 143.55 99.75 134.25 C 91.68 124.94 80.88 112.28 78.00 100.00
C 77.89 99.53 78.00 99.00 78.00 99.00
C 72.88 95.07 74.17 87.00 74.00 81.00
C 75.28 81.28 77.50 80.24 78.00 82.00 Z"/>
</g>
<g fill="#E1F0E6" fill-opacity="0.22" stroke="None">
<path d="
M 78.00 99.00 
C 76.71 93.49 73.48 88.31 75.00 82.00
C 76.00 82.00 77.00 82.00 78.00 82.00
C 77.50 80.24 75.28 81.28 74.00 81.00
C 74.17 87.00 72.88 95.07 78.00 99.00 Z"/>
</g>
<g fill="#74A285" fill-opacity="1.00" stroke="None">
<path d="
M 78.00 99.00 
C 78.00 99.00 77.89 99.53 78.00 100.00
C 86.01 109.98 90.40 123.53 100.25 132.75 C 110.10 141.97 118.76 151.77 129.25 159.75 C 139.73 167.74 154.94 171.55 164.00 181.00
C 164.00 181.00 164.57 180.83 165.00 181.00
C 175.92 185.29 191.95 195.48 194.00 208.00
C 194.00 208.00 193.98 208.50 194.00 209.00
C 197.02 212.72 198.88 221.01 199.00 226.00
C 199.00 226.00 198.99 226.50 199.00 227.00
C 201.24 231.10 202.20 237.13 203.00 242.00
C 203.00 242.00 202.99 242.50 203.00 243.00
C 204.13 245.06 204.60 247.42 205.00 250.00
C 205.29 251.87 205.54 253.26 206.00 255.00
C 208.08 260.53 211.76 267.63 212.00 274.00
C 212.00 274.00 211.95 274.50 212.00 275.00
C 215.67 279.96 210.54 286.61 207.00 290.00
C 207.00 290.00 207.16 290.56 207.00 291.00
C 199.04 313.07 175.52 326.36 154.00 330.00
C 150.96 330.51 148.85 330.91 146.00 332.00
C 138.41 334.91 129.36 337.62 121.00 339.00
C 121.00 339.00 120.50 338.99 120.00 339.00
C 111.09 343.66 105.57 343.98 95.92 348.92 C 86.28 353.87 84.56 360.22 92.00 368.00
C 92.00 368.00 92.53 367.89 93.00 368.00
C 106.30 371.12 120.04 383.00 130.75 390.25 C 141.46 397.50 146.82 424.93 160.23 416.23 C 173.63 407.53 179.27 396.53 188.75 384.75 C 198.23 372.97 205.52 359.69 222.00 357.00
C 222.00 357.00 222.50 357.02 223.00 357.00
C 226.99 353.76 237.62 351.12 243.00 351.00
C 243.00 351.00 243.50 350.96 244.00 351.00
C 245.73 349.60 247.68 349.39 250.00 349.00
C 254.39 348.26 257.81 347.27 262.00 346.00
C 268.08 343.34 275.11 339.13 282.00 338.00
C 282.00 338.00 282.53 338.11 283.00 338.00
C 291.95 330.82 304.41 327.01 313.75 319.75 C 323.08 312.49 330.97 304.45 338.30 295.30 C 345.64 286.16 350.86 274.50 357.25 265.25 C 363.65 256.01 365.50 239.19 375.00 233.00
C 375.00 233.00 374.83 232.43 375.00 232.00
C 379.61 220.25 391.00 206.32 403.00 202.00
C 408.37 200.07 413.80 198.69 419.00 196.00
C 420.84 195.05 422.70 193.47 425.00 193.00
C 416.44 174.91 391.39 190.21 380.00 177.00
C 377.37 175.97 375.81 175.52 373.00 175.00
C 358.32 172.27 341.83 178.48 331.25 186.25 C 320.67 194.02 308.34 209.01 295.93 204.07 C 283.52 199.13 280.98 182.25 271.70 173.30 C 262.42 164.36 258.17 151.40 247.75 142.25 C 237.33 133.10 223.21 128.27 211.00 123.00
C 208.39 121.87 206.76 121.59 204.00 121.00
C 197.22 119.55 189.32 117.86 182.98 115.02 C 176.63 112.19 167.24 112.25 162.00 108.00
C 162.00 108.00 161.48 108.09 161.00 108.00
C 156.72 107.20 145.62 105.42 143.00 102.00
C 143.00 102.00 142.50 102.02 142.00 102.00
C 137.24 101.82 129.88 99.12 126.00 97.00
C 126.00 97.00 125.48 97.09 125.00 97.00
C 119.89 96.05 110.90 94.17 107.00 91.00
C 107.00 91.00 106.48 91.09 106.00 91.00
C 101.77 90.21 97.67 88.58 94.00 87.00
C 91.39 85.87 89.76 85.59 87.00 85.00
C 83.93 84.34 81.36 84.03 79.00 82.00
C 79.00 82.00 78.30 82.25 78.00 82.00
C 77.00 82.00 76.00 82.00 75.00 82.00
C 73.48 88.31 76.71 93.49 78.00 99.00 Z"/>
</g>
<g fill="#DFF0E1" fill-opacity="0.20" stroke="None">
<path d="
M 87.00 85.00 
C 84.36 84.05 82.35 82.13 79.00 82.00
C 81.36 84.03 83.93 84.34 87.00 85.00 Z"/>
</g>
<g fill="#E0F1E4" fill-opacity="0.18" stroke="None">
<path d="
M 106.00 91.00 
C 102.58 88.07 98.24 88.15 94.00 87.00
C 97.67 88.58 101.77 90.21 106.00 91.00 Z"/>
</g>
<g fill="#DEEFE3" fill-opacity="0.22" stroke="None">
<path d="
M 125.00 97.00 
C 122.77 94.09 110.82 90.71 107.00 91.00
C 110.90 94.17 119.89 96.05 125.00 97.00 Z"/>
</g>
<g fill="#DFEFE4" fill-opacity="0.19" stroke="None">
<path d="
M 142.00 102.00 
C 139.69 98.99 129.85 97.09 126.00 97.00
C 129.88 99.12 137.24 101.82 142.00 102.00 Z"/>
</g>
<g fill="#DCECE0" fill-opacity="0.23" stroke="None">
<path d="
M 164.00 181.00 
C 154.94 171.55 139.73 167.74 129.25 159.75 C 118.76 151.77 110.10 141.97 100.25 132.75 C 90.40 123.53 86.01 109.98 78.00 100.00
C 80.88 112.28 91.68 124.94 99.75 134.25 C 107.82 143.55 118.87 154.70 129.30 160.70 C 139.74 166.70 152.28 178.43 164.00 181.00 Z"/>
</g>
<g fill="#E0F1E5" fill-opacity="0.21" stroke="None">
<path d="
M 161.00 108.00 
C 158.57 104.83 147.08 102.16 143.00 102.00
C 145.62 105.42 156.72 107.20 161.00 108.00 Z"/>
</g>
<g fill="#E0F0E5" fill-opacity="0.20" stroke="None">
<path d="
M 204.00 121.00 
C 197.63 118.93 190.07 115.01 183.07 113.93 C 176.08 112.84 169.11 107.46 162.00 108.00
C 167.24 112.25 176.63 112.19 182.98 115.02 C 189.32 117.86 197.22 119.55 204.00 121.00 Z"/>
</g>
<g fill="#E0F0E6" fill-opacity="0.19" stroke="None">
<path d="
M 373.00 175.00 
C 360.98 171.30 347.36 173.29 337.08 181.08 C 326.79 188.86 320.67 191.64 310.23 200.23 C 299.79 208.82 288.98 198.39 283.75 188.25 C 278.53 178.10 270.15 171.36 264.30 161.70 C 258.45 152.03 251.68 144.34 242.90 137.10 C 234.12 129.86 221.96 126.51 211.00 123.00
C 223.21 128.27 237.33 133.10 247.75 142.25 C 258.17 151.40 262.42 164.36 271.70 173.30 C 280.98 182.25 283.52 199.13 295.93 204.07 C 308.34 209.01 320.67 194.02 331.25 186.25 C 341.83 178.48 358.32 172.27 373.00 175.00 Z"/>
</g>
<g fill="#DBEEE2" fill-opacity="0.20" stroke="None">
<path d="
M 419.00 196.00 
C 421.73 196.60 423.47 194.00 426.00 194.00
C 423.81 186.42 415.04 180.49 406.00 182.00 C 396.96 183.51 387.92 180.11 380.00 177.00
C 391.39 190.21 416.44 174.91 425.00 193.00
C 422.70 193.47 420.84 195.05 419.00 196.00 Z"/>
</g>
<g fill="#DEEFE4" fill-opacity="0.20" stroke="None">
<path d="
M 194.00 208.00 
C 191.95 195.48 175.92 185.29 165.00 181.00
C 169.54 185.74 175.51 188.80 181.30 192.70 C 187.10 196.60 189.90 203.22 194.00 208.00 Z"/>
</g>
<g fill="#DBECE0" fill-opacity="0.22" stroke="None">
<path d="
M 375.00 232.00 
C 384.80 222.61 390.00 208.72 403.00 202.00
C 391.00 206.32 379.61 220.25 375.00 232.00 Z"/>
</g>
<g fill="#E0F1E4" fill-opacity="0.20" stroke="None">
<path d="
M 199.00 226.00 
C 198.88 221.01 197.02 212.72 194.00 209.00
C 194.16 213.28 196.49 222.91 199.00 226.00 Z"/>
</g>
<g fill="#E2F3E6" fill-opacity="0.23" stroke="None">
<path d="
M 203.00 242.00 
C 202.20 237.13 201.24 231.10 199.00 227.00
C 199.09 230.70 200.08 239.76 203.00 242.00 Z"/>
</g>
<g fill="#E0EEE4" fill-opacity="0.21" stroke="None">
<path d="
M 283.00 338.00 
C 304.42 332.96 326.66 313.92 339.75 295.75 C 352.85 277.58 366.79 253.90 375.00 233.00
C 365.50 239.19 363.65 256.01 357.25 265.25 C 350.86 274.50 345.64 286.16 338.30 295.30 C 330.97 304.45 323.08 312.49 313.75 319.75 C 304.41 327.01 291.95 330.82 283.00 338.00 Z"/>
</g>
<g fill="#E2EFE5" fill-opacity="0.19" stroke="None">
<path d="
M 205.00 250.00 
C 204.60 247.42 204.13 245.06 203.00 243.00
C 203.07 246.00 204.37 247.66 205.00 250.00 Z"/>
</g>
<g fill="#E1EEE5" fill-opacity="0.23" stroke="None">
<path d="
M 212.00 274.00 
C 211.76 267.63 208.08 260.53 206.00 255.00
C 207.55 260.88 208.04 269.39 212.00 274.00 Z"/>
</g>
<g fill="#E4F4E9" fill-opacity="0.17" stroke="None">
<path d="
M 207.00 290.00 
C 210.54 286.61 215.67 279.96 212.00 275.00
C 212.65 281.83 208.27 284.23 207.00 290.00 Z"/>
</g>
<g fill="#E5F2E8" fill-opacity="0.18" stroke="None">
<path d="
M 154.00 330.00 
C 175.52 326.36 199.04 313.07 207.00 291.00
C 197.88 295.09 196.29 310.73 186.23 316.23 C 176.17 321.73 164.71 326.88 154.00 330.00 Z"/>
</g>
<g fill="#E4F2E8" fill-opacity="0.19" stroke="None">
<path d="
M 121.00 339.00 
C 129.36 337.62 138.41 334.91 146.00 332.00
C 139.93 333.53 124.89 333.92 121.00 339.00 Z"/>
</g>
<g fill="#DCECE1" fill-opacity="0.24" stroke="None">
<path d="
M 262.00 346.00 
C 268.74 343.96 276.42 342.48 282.00 338.00
C 275.11 339.13 268.08 343.34 262.00 346.00 Z"/>
</g>
<g fill="#E0EFE4" fill-opacity="0.21" stroke="None">
<path d="
M 92.00 368.00 
C 84.56 360.22 86.28 353.87 95.92 348.92 C 105.57 343.98 111.09 343.66 120.00 339.00
C 110.46 339.20 102.18 346.25 93.23 349.23 C 84.28 352.21 80.99 365.58 92.00 368.00 Z"/>
</g>
<g fill="#E1F1E5" fill-opacity="0.26" stroke="None">
<path d="
M 244.00 351.00 
C 247.01 351.23 247.85 349.58 250.00 349.00
C 247.68 349.39 245.73 349.60 244.00 351.00 Z"/>
</g>
<g fill="#DFEFE3" fill-opacity="0.22" stroke="None">
<path d="
M 223.00 357.00 
C 227.12 356.84 240.63 354.10 243.00 351.00
C 237.62 351.12 226.99 353.76 223.00 357.00 Z"/>
</g>
<g fill="#DFEFE4" fill-opacity="0.20" stroke="None">
<path d="
M 93.00 368.00 
C 99.89 376.97 115.30 376.91 123.92 386.08 C 132.54 395.25 140.62 400.12 145.70 413.30 C 150.77 426.49 167.63 414.54 173.25 405.25 C 178.87 395.96 190.08 388.46 194.75 377.75 C 199.43 367.04 214.37 363.55 222.00 357.00
C 205.52 359.69 198.23 372.97 188.75 384.75 C 179.27 396.53 173.63 407.53 160.23 416.23 C 146.82 424.93 141.46 397.50 130.75 390.25 C 120.04 383.00 106.30 371.12 93.00 368.00 Z"/>
</g>
</svg>